Coordinates
version=1
nRows=19
nColumns=36
inDegrees=yes

Units are S.I. units (second, meters, Newtons, ...)
If the header above contains a line with 'inDegrees', this indicates whether rotational values are in degrees (yes) or radians (no).

endheader
time	pelvis_tilt	pelvis_list	pelvis_rotation	pelvis_tx	pelvis_ty	pelvis_tz	hip_flexion_r	hip_adduction_r	hip_rotation_r	knee_angle_r	knee_angle_r_beta	ankle_angle_r	subtalar_angle_r	mtp_angle_r	hip_flexion_l	hip_adduction_l	hip_rotation_l	knee_angle_l	knee_angle_l_beta	ankle_angle_l	subtalar_angle_l	mtp_angle_l	lumbar_extension	lumbar_bending	lumbar_rotation	arm_flex_r	arm_add_r	arm_rot_r	elbow_flex_r	pro_sup_r	arm_flex_l	arm_add_l	arm_rot_l	elbow_flex_l	pro_sup_l
      2.37916670	    -19.79138820	      1.64978575	     -2.83035013	      0.17245401	      0.77219413	     -0.02766300	     57.75463542	     -1.33229239	      5.63818822	     70.44256736	      1.22945473	     27.71331233	    -16.00216689	     -7.49999987	     57.09903913	      1.26478099	     16.80108193	     68.39768176	      1.19376475	     16.32561839	    -32.53225855	     -7.49999987	    -14.16085228	      1.73108593	      4.13720604	      6.65694067	    -30.47605506	    -15.84650568	     74.27442979	     87.37966415	     -8.52103669	    -11.19612402	    -31.35151191	     44.51521502	     71.84134950
      2.38333330	    -19.86546647	      1.65224724	     -2.69485149	      0.17327015	      0.77558514	     -0.02761148	     57.39808183	     -1.28585973	      5.68893179	     69.75898043	      1.21752389	     27.69377970	    -16.47279740	     -7.49999987	     57.06099569	      1.13862996	     16.48379841	     68.11304795	      1.18879695	     16.09662882	    -32.68678848	     -7.49999987	    -13.53365145	      1.93751060	      4.18935815	      7.90872665	    -32.37893051	    -14.91327209	     77.09089504	     83.97989775	     -8.75827380	    -12.49018662	    -30.55689890	     48.01728961	     70.48215959
      2.38750000	    -20.26194030	      1.26262370	     -2.79882125	      0.17993109	      0.77912470	     -0.02374216	     57.05447690	     -0.52406319	      5.62829779	     68.90807153	      1.20267273	     27.64901038	    -17.07266985	     -7.49999987	     56.98369342	      0.23571956	     16.15246641	     67.58442244	      1.17957069	     16.28997742	    -32.27150045	     -7.49999987	    -12.69640360	      2.31693681	      4.13143377	      9.21209626	    -33.63579423	    -14.41560612	     78.77512651	     90.44929126	     -8.62026441	    -15.08032461	    -28.14189083	     49.33102903	     74.00939407
      2.39166670	    -20.23470129	      0.93550311	     -2.96894171	      0.18470854	      0.78287468	     -0.02891529	     56.14206125	     -0.29361817	      5.27076105	     67.78435804	      1.18306023	     27.10091930	    -17.34954302	     -7.49999987	     56.35255486	     -0.29848731	     15.98653877	     66.93264594	      1.16819505	     16.21718202	    -31.94937401	     -7.49999987	    -12.23549048	      2.76397675	      3.98714075	     11.13057115	    -35.39623944	    -12.00503287	     82.35070963	     90.78438886	     -8.85629312	    -16.74144781	    -25.58847071	     51.56930178	     74.49380920
      2.39583330	    -20.34121260	      0.53568743	     -3.17286988	      0.18646132	      0.78590537	     -0.02981381	     55.55872854	      0.09696848	      5.03120159	     66.85155902	      1.16677982	     26.78032919	    -17.64333373	     -7.49999987	     56.00245544	     -0.75237132	     15.99988649	     66.45641190	      1.15988320	     16.26855654	    -31.71731424	     -7.49999987	    -11.76700379	      3.26879136	      3.84704569	     11.52749201	    -37.56197485	     -9.82370748	     85.66049521	     89.38678782	     -9.19016865	    -17.31615463	    -24.77822927	     54.58846228	     73.80272255
      2.40000000	    -20.21481050	      0.20230423	     -3.07214466	      0.19183005	      0.78980090	     -0.02617064	     54.31778722	      0.27397437	      4.62662280	     65.43301222	      1.14202150	     26.21551911	    -17.91171365	     -7.49999987	     55.23038668	     -1.09375589	     16.27956072	     65.74178556	      1.14741061	     16.35557525	    -31.21487653	     -7.49999987	    -11.35644193	      3.39338357	      3.63267528	     11.95708293	    -38.56030590	     -8.93967606	     88.41103306	     89.94456477	    -10.06593822	    -17.57694380	    -26.37688063	     59.47476611	     73.83063661
      2.40416670	    -20.05930944	      0.01180341	     -3.13826561	      0.18872523	      0.79609531	     -0.03085406	     53.54011594	      0.41782058	      4.61806531	     64.25871050	      1.12152607	     25.53316074	    -18.31805331	     -7.49999987	     54.67762688	     -1.20763043	     16.24184843	     65.12134687	      1.13658192	     16.27571301	    -31.06095858	     -7.49999987	    -11.40784660	      3.71928806	      3.24854571	     12.90994380	    -39.65930081	     -8.66955597	     91.02040896	     90.16562575	    -10.11818761	    -17.89819812	    -27.30598047	     62.83638022	     73.77763659
      2.40833330	    -19.35513263	     -0.22109693	     -3.02879188	      0.19363353	      0.80013741	     -0.02663588	     52.06785597	      0.64963256	      4.59406978	     63.17758692	      1.10265691	     25.18632741	    -18.79284582	     -7.49999987	     53.25294868	     -1.39054151	     16.61529973	     64.15274861	      1.11967669	     15.93698299	    -31.05875388	     -7.49999987	    -11.70956505	      4.08773366	      3.02608404	     14.44439941	    -40.76726481	     -8.80564778	     94.23261219	     90.25463510	    -10.36654943	    -18.52539878	    -28.12417881	     65.54768657	     73.68848956
      2.41250000	    -18.68644755	     -0.30870757	     -2.90539277	      0.19909173	      0.80715458	     -0.02262002	     50.37970462	      0.91702773	      4.57835190	     61.89212264	      1.08022132	     24.69900913	    -19.54031617	     -7.49999987	     51.73101872	     -1.89205286	     16.45246528	     62.94031341	      1.09851570	     15.71111488	    -30.36908362	     -7.49999987	    -11.99099971	      4.02295058	      2.72345502	     15.38895742	    -40.57577448	     -8.79775567	     96.00447012	     90.34549261	    -10.67285112	    -18.79922262	    -28.46785910	     69.32615619	     73.36218994
      2.41666670	    -17.78809639	     -0.40617392	     -2.72233952	      0.20310135	      0.80791520	     -0.01819870	     48.67109700	      1.28391633	      4.63443421	     61.16789804	      1.06758122	     24.90058139	    -19.95416042	     -7.49999987	     50.02346663	     -2.50932249	     16.34396715	     61.86833997	      1.07980624	     15.66097716	    -29.67940354	     -7.49999987	    -11.85869086	      4.02496695	      3.31076851	     17.87007473	    -41.71727670	     -7.31118547	     98.57331701	     88.58719907	    -10.07660910	    -19.84368206	    -26.80783492	     71.38380794	     72.76773765
      2.42083330	    -17.21633542	     -0.53808197	     -2.71499405	      0.20345994	      0.81142800	     -0.02838280	     47.53095712	      1.35505399	      4.81392468	     60.57275111	      1.05719394	     24.51802455	    -21.10481911	     -7.49999987	     49.04401131	     -2.59290318	     15.96604123	     61.40776354	      1.07176766	     15.85097742	    -29.21187756	     -7.49999987	    -11.83224040	      4.24915380	      4.00840296	     20.50161260	    -43.85763112	     -6.12582727	     99.56698796	     88.18771753	     -9.22843072	    -21.16741249	    -25.51355909	     74.64503599	     72.59182214
      2.42500000	    -16.50516466	     -0.49653508	     -2.62011686	      0.20756679	      0.81538898	     -0.02369931	     46.08251727	      1.32284038	      4.95715709	     59.85064182	      1.04459076	     24.49317487	    -21.46044452	     -7.49999987	     47.70183131	     -2.64400141	     15.79308906	     60.51891893	      1.05625440	     15.87331357	    -28.80996483	     -7.49999987	    -11.64702269	      4.14222270	      3.79828031	     23.38980100	    -45.22310560	     -5.02553801	    102.61599183	     88.46598676	     -9.19053027	    -23.17894245	    -24.75623120	     77.40873162	     72.59712608
      2.42916670	    -16.08714044	     -0.42801314	     -2.18454775	      0.21272019	      0.82188228	     -0.01941231	     44.70326956	      1.35723640	      5.22801533	     58.93375909	      1.02858814	     24.23744399	    -21.94270795	     -7.49999987	     46.43310801	     -2.66726681	     15.74054258	     59.29125759	      1.03482766	     15.61434931	    -28.11594508	     -7.49999987	    -10.78107609	      4.01869932	      3.04681402	     24.31015888	    -45.27833747	     -4.33191336	    104.27103548	     88.59002245	     -8.90227560	    -24.90247144	    -23.75214985	     79.99883909	     72.61977139
      2.43333330	    -15.38325427	     -0.58163006	     -1.74084049	      0.22097058	      0.82644930	     -0.01980553	     42.58376438	      1.37903623	      4.95675158	     57.42022307	      1.00217195	     23.84427197	    -22.36147074	     -7.49999987	     44.77685069	     -2.81277605	     15.85953817	     58.19736861	      1.01573570	     15.58784082	    -27.46426717	     -7.49999987	    -10.09023956	      4.02729946	      2.33597203	     24.79143569	    -44.44953032	     -4.55624606	    106.82426013	     88.59311992	     -9.03304113	    -26.00662506	    -22.91295297	     83.15037085	     72.43649417
      2.43750000	    -15.05828637	     -0.65561017	     -1.45598646	      0.22152879	      0.83270659	     -0.02022816	     41.21236929	      1.37163185	      4.66745179	     56.05399324	      0.97832674	     23.45967682	    -22.36633221	     -7.49999987	     43.73721852	     -2.89417176	     16.09698378	     57.20052968	      0.99833758	     14.96294449	    -27.04029286	     -7.49999987	     -9.27935362	      3.99414904	      2.22589583	     25.50315881	    -43.25068970	     -4.10379012	    108.93500703	     88.60095134	     -8.53956454	    -27.33608767	    -21.69062007	     85.21398480	     72.54678345
      2.44166670	    -14.35661197	     -0.66393685	     -1.22694754	      0.22094361	      0.83369382	     -0.02016334	     39.96470211	      1.29728829	      4.55987330	     55.39037447	      0.96674441	     23.23039735	    -22.71128824	     -7.49999987	     42.59548367	     -3.06624513	     15.88235591	     56.48736338	      0.98589048	     15.03261500	    -26.55940488	     -7.49999987	     -9.25014841	      3.88305918	      2.32969685	     27.10485693	    -43.45344348	     -3.00819737	    111.09511407	     88.12154332	     -7.84760034	    -29.99681358	    -19.60938244	     88.89257409	     72.57020743
      2.44583330	    -13.68762394	     -0.81420731	     -0.72447054	      0.22604723	      0.84669655	     -0.01736442	     38.05957041	      1.15121719	      4.12553137	     53.38159078	      0.93168452	     22.19137221	    -22.99666778	     -7.49999987	     41.07913933	     -3.24441093	     16.08284912	     54.86827861	      0.95763212	     14.16960225	    -26.17825835	     -7.49999987	     -9.29287923	      3.91422117	      2.19765361	     27.86062373	    -43.01385640	     -2.92329111	    113.12775245	     88.13050817	     -6.75783258	    -30.82943040	    -18.44567268	     92.41227586	     73.21672781
      2.45000000	    -13.51511784	     -0.80752819	     -0.25198030	      0.23397815	      0.84464798	     -0.02699870	     36.89268129	      0.46002252	      3.71699363	     52.20554140	      0.91115859	     21.89353463	    -22.54466791	     -7.49999987	     40.18620165	     -2.98443692	     15.84506988	     53.76437666	      0.93836539	     14.00378349	    -25.74258430	     -7.49999987	     -8.04623451	      4.29306835	      2.40098375	     27.89077239	    -44.08877865	     -2.20784315	    114.78005039	     88.04005717	     -6.64744375	    -30.66959706	    -17.90075356	     96.20751070	     73.48667265
      2.45416670	    -13.49044303	     -0.51993550	     -0.22936956	      0.23495982	      0.85827815	     -0.02678147	     35.69031545	     -0.19529089	      3.63979514	     50.13740619	      0.87506282	     20.77319594	    -22.21667528	     -7.49999987	     39.05452867	     -2.81584837	     15.19414999	     51.96659125	      0.90698812	     12.88204726	    -25.80506286	     -7.49999987	     -7.42408823	      4.29488823	      2.24943112	     27.57213045	    -43.95730011	     -2.50061939	    116.67141785	     86.99278637	     -7.05737552	    -29.48752296	    -18.90031520	     98.92057194	     73.72157218
